<svg width="336" height="336" viewBox="0 0 336 336" fill="none" xmlns="http://www.w3.org/2000/svg">
<path d="M168 0C134.772 2.99581e-07 102.29 9.8536 74.6619 28.3147C47.034 46.7757 25.501 73.0151 12.7861 103.714C0.0712927 134.414 -3.25434 168.194 3.2298 200.783C9.71395 233.373 25.7166 263.308 49.2141 286.802C72.7116 310.296 102.648 326.295 135.239 332.775C167.829 339.254 201.609 335.924 232.306 323.205C263.004 310.486 289.241 288.95 307.698 261.319C326.155 233.689 336.004 201.206 336 167.977C335.952 123.438 318.236 80.7364 286.74 49.2442C255.243 17.7521 212.54 0.0418012 168 0ZM269.698 291.287C238.115 318.832 196.854 331.894 153.607 327.924C110.354 324.215 70.2906 303.661 42.0508 270.69C28.2066 254.698 17.733 236.075 11.2574 215.939C4.78182 195.802 2.4375 174.565 4.36489 153.501C6.29228 132.436 12.4517 111.978 22.4742 93.3505C32.4967 74.7233 46.1761 58.3108 62.6927 45.0963C92.2519 21.1082 129.188 8.06317 167.256 8.16651C172.422 8.16651 177.61 8.41466 182.822 8.86585C271.638 16.9421 332.345 91.501 324.021 182.348C320.073 225.549 300.785 264.216 269.698 291.287Z" fill="url(#paint0_linear_101_230)"/>
<defs>
<linearGradient id="paint0_linear_101_230" x1="7.91838" y1="24.8154" x2="344.054" y2="327.112" gradientUnits="userSpaceOnUse">
<stop stop-color="#B88B00"/>
<stop offset="0.265856" stop-color="#ECBC29"/>
<stop offset="0.488437" stop-color="#B88B00"/>
<stop offset="0.693188" stop-color="#ECBC29"/>
<stop offset="0.979167" stop-color="#B88B00"/>
</linearGradient>
</defs>
</svg>
