<svg width="20" height="20" viewBox="0 0 20 20" fill="none" xmlns="http://www.w3.org/2000/svg">
<g clip-path="url(#clip0_1_2653)">
<path fill-rule="evenodd" clip-rule="evenodd" d="M1.00098 18.5352C1.00098 19.3441 1.65683 20 2.46582 20H17.5341C18.3431 20 18.9989 19.3441 18.9989 18.5352V13.7409C18.9989 13.5791 18.8678 13.4479 18.706 13.4479C18.5442 13.4479 18.413 13.5791 18.413 13.7409V18.5352C18.413 19.0205 18.0195 19.4141 17.5341 19.4141H2.46582C1.98043 19.4141 1.58691 19.0205 1.58691 18.5352V16.905C1.58691 16.7432 1.45575 16.612 1.29395 16.612C1.13214 16.612 1.00098 16.7432 1.00098 16.905V18.5352Z" fill="#B88B00"/>
<path fill-rule="evenodd" clip-rule="evenodd" d="M1.00098 17.3613C1.00098 18.1714 1.65769 18.8281 2.46777 18.8281H14.3461C14.7351 18.8281 15.1082 18.6736 15.3833 18.3985L18.5693 15.2125C18.8444 14.9374 18.9989 14.5643 18.9989 14.1752V2.80562C18.9989 1.99554 18.3422 1.33883 17.5321 1.33883H2.46777C1.65769 1.33883 1.00098 1.99554 1.00098 2.80562V17.3613ZM2.46777 18.2422C1.98129 18.2422 1.58691 17.8478 1.58691 17.3613V2.80562C1.58691 2.31915 1.98129 1.92476 2.46777 1.92476H17.5321C18.0186 1.92476 18.413 2.31915 18.413 2.80562V14.1752C18.413 14.4089 18.3202 14.6329 18.155 14.7981L18.155 14.7981L14.9689 17.9842C14.8037 18.1494 14.5797 18.2422 14.3461 18.2422H2.46777Z" fill="#B88B00"/>
<path fill-rule="evenodd" clip-rule="evenodd" d="M13.572 18.5352C13.572 18.697 13.7032 18.8281 13.865 18.8281C14.558 18.8281 15.1198 18.2664 15.1198 17.5734V15.6178C15.1198 15.2484 15.4192 14.9489 15.7885 14.9489H17.7442C18.4371 14.9489 18.9989 14.3872 18.9989 13.6942C18.9989 13.5324 18.8677 13.4013 18.7059 13.4013C18.5441 13.4013 18.413 13.5324 18.413 13.6942C18.413 14.0636 18.1135 14.363 17.7442 14.363H15.7885C15.0956 14.363 14.5338 14.9248 14.5338 15.6178V17.5734C14.5338 17.9428 14.2344 18.2422 13.865 18.2422C13.7032 18.2422 13.572 18.3734 13.572 18.5352Z" fill="#B88B00"/>
<path fill-rule="evenodd" clip-rule="evenodd" d="M1.00098 5.81836C1.00098 5.98016 1.13214 6.11133 1.29395 6.11133H4.75777C4.91958 6.11133 5.05074 5.98016 5.05074 5.81836C5.05074 5.65656 4.91958 5.52539 4.75777 5.52539H1.29395C1.13214 5.52539 1.00098 5.65656 1.00098 5.81836Z" fill="#B88B00"/>
<path fill-rule="evenodd" clip-rule="evenodd" d="M5.63672 5.81836C5.63672 5.98016 5.76789 6.11133 5.92969 6.11133H18.706C18.8678 6.11133 18.999 5.98016 18.999 5.81836C18.999 5.65656 18.8678 5.52539 18.706 5.52539H5.92969C5.76789 5.52539 5.63672 5.65656 5.63672 5.81836Z" fill="#B88B00"/>
<path fill-rule="evenodd" clip-rule="evenodd" d="M3.72034 2.78635C3.72034 3.27838 4.1192 3.67725 4.61124 3.67725C4.77304 3.67725 4.9042 3.54608 4.9042 3.38428C4.9042 3.22248 4.77304 3.09131 4.61124 3.09131C4.4428 3.09131 4.30627 2.95478 4.30627 2.78635V0.891075C4.30627 0.722642 4.4428 0.586113 4.61124 0.586113H4.74573C4.91416 0.586113 5.05069 0.722642 5.05069 0.891075V1.63197C5.05069 1.79377 5.18186 1.92494 5.34366 1.92494C5.50546 1.92494 5.63663 1.79377 5.63663 1.63197V0.891075C5.63663 0.399038 5.23776 0.000175953 4.74573 0.000175953H4.61124C4.1192 0.000175953 3.72034 0.399038 3.72034 0.891075V2.78635Z" fill="#B88B00"/>
<path fill-rule="evenodd" clip-rule="evenodd" d="M14.3633 2.78635C14.3633 3.27838 14.7621 3.67725 15.2542 3.67725C15.416 3.67725 15.5471 3.54608 15.5471 3.38428C15.5471 3.22248 15.416 3.09131 15.2542 3.09131C15.0857 3.09131 14.9492 2.95478 14.9492 2.78635V0.891075C14.9492 0.722642 15.0857 0.586113 15.2542 0.586113H15.3887C15.5571 0.586113 15.6936 0.722642 15.6936 0.891075V1.63197C15.6936 1.79377 15.8248 1.92494 15.9866 1.92494C16.1484 1.92494 16.2796 1.79377 16.2796 1.63197V0.891075C16.2796 0.399038 15.8807 0.000175953 15.3887 0.000175953H15.2542C14.7621 0.000175953 14.3633 0.399038 14.3633 0.891075V2.78635Z" fill="#B88B00"/>
<path fill-rule="evenodd" clip-rule="evenodd" d="M2.75879 9.25027C2.75879 9.56618 3.01488 9.82227 3.33078 9.82227H4.72586C5.04176 9.82227 5.29785 9.56618 5.29785 9.25027V7.8552C5.29785 7.53929 5.04176 7.2832 4.72586 7.2832H3.33078C3.01488 7.2832 2.75879 7.53929 2.75879 7.8552V9.25027ZM3.34473 9.23633V7.86914H4.71191V9.23633H3.34473Z" fill="#B88B00"/>
<path fill-rule="evenodd" clip-rule="evenodd" d="M6.73987 9.25027C6.73987 9.56618 6.99596 9.82227 7.31186 9.82227H8.70694C9.02284 9.82227 9.27893 9.56618 9.27893 9.25027V7.8552C9.27893 7.53929 9.02284 7.2832 8.70694 7.2832H7.31186C6.99596 7.2832 6.73987 7.53929 6.73987 7.8552V9.25027ZM7.32581 9.23633V7.86914H8.69299V9.23633H7.32581Z" fill="#B88B00"/>
<path fill-rule="evenodd" clip-rule="evenodd" d="M10.7209 9.25027C10.7209 9.56618 10.977 9.82227 11.2929 9.82227H12.688C13.0039 9.82227 13.26 9.56618 13.26 9.25027V7.8552C13.26 7.53929 13.0039 7.2832 12.688 7.2832H11.2929C10.977 7.2832 10.7209 7.53929 10.7209 7.8552V9.25027ZM11.3069 9.23633V7.86914H12.6741V9.23633H11.3069Z" fill="#B88B00"/>
<path fill-rule="evenodd" clip-rule="evenodd" d="M14.702 9.25027C14.702 9.56618 14.9581 9.82227 15.274 9.82227H16.6691C16.985 9.82227 17.2411 9.56618 17.2411 9.25027V7.8552C17.2411 7.53929 16.985 7.2832 16.6691 7.2832H15.274C14.9581 7.2832 14.702 7.53929 14.702 7.8552V9.25027ZM15.288 9.23633V7.86914H16.6552V9.23633H15.288Z" fill="#B88B00"/>
<path fill-rule="evenodd" clip-rule="evenodd" d="M2.75879 12.8743C2.75879 13.1902 3.01488 13.4463 3.33078 13.4463H4.72586C5.04176 13.4463 5.29785 13.1902 5.29785 12.8743V11.4792C5.29785 11.1633 5.04176 10.9072 4.72586 10.9072H3.33078C3.01488 10.9072 2.75879 11.1633 2.75879 11.4792V12.8743ZM3.34473 12.8604V11.4932H4.71191V12.8604H3.34473Z" fill="#B88B00"/>
<path fill-rule="evenodd" clip-rule="evenodd" d="M6.73987 12.8743C6.73987 13.1902 6.99596 13.4463 7.31186 13.4463H8.70694C9.02284 13.4463 9.27893 13.1902 9.27893 12.8743V11.4792C9.27893 11.1633 9.02284 10.9072 8.70694 10.9072H7.31186C6.99596 10.9072 6.73987 11.1633 6.73987 11.4792V12.8743ZM7.32581 12.8604V11.4932H8.69299V12.8604H7.32581Z" fill="#B88B00"/>
<path fill-rule="evenodd" clip-rule="evenodd" d="M10.7209 12.8743C10.7209 13.1902 10.977 13.4463 11.2929 13.4463H12.688C13.0039 13.4463 13.26 13.1902 13.26 12.8743V11.4792C13.26 11.1633 13.0039 10.9072 12.688 10.9072H11.2929C10.977 10.9072 10.7209 11.1633 10.7209 11.4792V12.8743ZM11.3069 12.8604V11.4932H12.6741V12.8604H11.3069Z" fill="#B88B00"/>
<path fill-rule="evenodd" clip-rule="evenodd" d="M14.702 12.9612C14.702 13.2771 14.9581 13.5332 15.274 13.5332H16.6691C16.985 13.5332 17.2411 13.2771 17.2411 12.9612V11.5661C17.2411 11.2502 16.985 10.9941 16.6691 10.9941H15.274C14.9581 10.9941 14.702 11.2502 14.702 11.5661V12.9612ZM15.288 12.9473V11.5801H16.6552V12.9473H15.288Z" fill="#B88B00"/>
<path fill-rule="evenodd" clip-rule="evenodd" d="M2.75879 16.4983C2.75879 16.8142 3.01488 17.0703 3.33078 17.0703H4.72586C5.04176 17.0703 5.29785 16.8142 5.29785 16.4983V15.1032C5.29785 14.7873 5.04176 14.5313 4.72586 14.5313H3.33078C3.01488 14.5313 2.75879 14.7873 2.75879 15.1032V16.4983ZM3.34473 16.4844V15.1172H4.71191V16.4844H3.34473Z" fill="#B88B00"/>
<path fill-rule="evenodd" clip-rule="evenodd" d="M6.73987 16.4983C6.73987 16.8142 6.99596 17.0703 7.31186 17.0703H8.70694C9.02284 17.0703 9.27893 16.8142 9.27893 16.4983V15.1032C9.27893 14.7873 9.02284 14.5313 8.70694 14.5313H7.31186C6.99596 14.5313 6.73987 14.7873 6.73987 15.1032V16.4983ZM7.32581 16.4844V15.1172H8.69299V16.4844H7.32581Z" fill="#B88B00"/>
<path fill-rule="evenodd" clip-rule="evenodd" d="M10.7209 16.4983C10.7209 16.8142 10.977 17.0703 11.2929 17.0703H12.688C13.0039 17.0703 13.26 16.8142 13.26 16.4983V15.1032C13.26 14.7873 13.0039 14.5313 12.688 14.5313H11.2929C10.9771 14.5313 10.7209 14.7873 10.7209 15.1032V15.5055C10.7209 15.6673 10.8521 15.7985 11.0139 15.7985C11.1757 15.7985 11.3069 15.6673 11.3069 15.5055V15.1172H12.6741V16.4844H11.3066C11.2993 16.329 11.171 16.2054 11.0139 16.2054C10.8521 16.2054 10.7209 16.3365 10.7209 16.4983Z" fill="#B88B00"/>
</g>
<defs>
<clipPath id="clip0_1_2653">
<rect width="20" height="20" fill="white"/>
</clipPath>
</defs>
</svg>
