<svg width="20" height="20" viewBox="0 0 20 20" fill="none" xmlns="http://www.w3.org/2000/svg">
<g clip-path="url(#clip0_1_2698)">
<path d="M17.0711 2.92891C15.1823 1.0402 12.6711 0 10 0C7.32891 0 4.8177 1.0402 2.92891 2.92891C1.0402 4.8177 0 7.32891 0 10C0 12.6711 1.0402 15.1823 2.92891 17.0711C4.8177 18.9598 7.32891 20 10 20C12.6711 20 15.1823 18.9598 17.0711 17.0711C18.9598 15.1823 20 12.6711 20 10C20 7.32891 18.9598 4.8177 17.0711 2.92891ZM16.6568 16.6568C14.8787 18.4348 12.5146 19.4141 10 19.4141C7.48539 19.4141 5.12133 18.4348 3.34324 16.6568C1.56516 14.8787 0.585938 12.5146 0.585938 10C0.585938 7.48539 1.56516 5.12133 3.34324 3.34324C5.12133 1.56516 7.48539 0.585938 10 0.585938C12.5146 0.585938 14.8787 1.56516 16.6568 3.34324C18.4348 5.12133 19.4141 7.48539 19.4141 10C19.4141 12.5146 18.4348 14.8787 16.6568 16.6568Z" fill="#B88B00"/>
<path d="M10 3.13135C9.8382 3.13135 9.70703 3.26252 9.70703 3.42432V4.67682C9.70703 4.83861 9.8382 4.96978 10 4.96978C10.1618 4.96978 10.293 4.83865 10.293 4.67686V3.42432C10.293 3.26252 10.1618 3.13135 10 3.13135Z" fill="#B88B00"/>
<path d="M10 15.0303C9.8382 15.0303 9.70703 15.1614 9.70703 15.3232V16.5757C9.70703 16.7375 9.8382 16.8687 10 16.8687C10.1618 16.8687 10.293 16.7375 10.293 16.5757V15.3232C10.293 15.1614 10.1618 15.0303 10 15.0303Z" fill="#B88B00"/>
<path d="M16.5757 9.70703H15.3232C15.1614 9.70703 15.0303 9.8382 15.0303 10C15.0303 10.1618 15.1614 10.293 15.3232 10.293H16.5757C16.7375 10.293 16.8687 10.1618 16.8687 10C16.8687 9.8382 16.7375 9.70703 16.5757 9.70703Z" fill="#B88B00"/>
<path d="M4.67682 9.70703H3.42432C3.26252 9.70703 3.13135 9.8382 3.13135 10C3.13135 10.1618 3.26252 10.293 3.42432 10.293H4.67682C4.83861 10.293 4.96978 10.1618 4.96978 10C4.96978 9.8382 4.83861 9.70703 4.67682 9.70703Z" fill="#B88B00"/>
<path d="M4.99404 6.77139L4.4517 6.45826C4.31154 6.37732 4.1324 6.42537 4.05151 6.56549C3.97061 6.7056 4.01861 6.88478 4.15873 6.96568L4.70108 7.27881C4.74721 7.30545 4.7976 7.31811 4.84729 7.31811C4.94854 7.31811 5.04701 7.26553 5.10127 7.17158C5.18217 7.03146 5.13416 6.85228 4.99404 6.77139Z" fill="#B88B00"/>
<path d="M15.8412 13.0341L15.2989 12.721C15.1588 12.64 14.9796 12.6881 14.8987 12.8282C14.8178 12.9683 14.8658 13.1475 15.0059 13.2284L15.5482 13.5415C15.5944 13.5681 15.6448 13.5808 15.6945 13.5808C15.7957 13.5808 15.8942 13.5282 15.9484 13.4343C16.0293 13.2942 15.9813 13.115 15.8412 13.0341Z" fill="#B88B00"/>
<path d="M13.4344 4.05152C13.2943 3.97059 13.1151 4.01863 13.0342 4.15875L12.7211 4.70109C12.6402 4.84121 12.6882 5.02039 12.8283 5.10129C12.8744 5.12793 12.9248 5.14059 12.9745 5.14059C13.0757 5.14059 13.1742 5.08801 13.2285 4.99406L13.5416 4.45172C13.6225 4.3116 13.5745 4.13242 13.4344 4.05152Z" fill="#B88B00"/>
<path d="M7.17181 14.8987C7.03165 14.8178 6.85247 14.8658 6.77161 15.0059L6.45849 15.5483C6.37759 15.6884 6.4256 15.8676 6.56571 15.9485C6.61185 15.9751 6.66224 15.9878 6.71193 15.9878C6.81318 15.9878 6.91165 15.9352 6.96591 15.8412L7.27903 15.2989C7.35993 15.1588 7.31193 14.9796 7.17181 14.8987Z" fill="#B88B00"/>
<path d="M15.9484 6.56547C15.8675 6.42535 15.6883 6.37735 15.5482 6.45824L15.0059 6.77137C14.8658 6.85227 14.8178 7.03145 14.8987 7.17156C14.9529 7.26555 15.0514 7.31809 15.1527 7.31809C15.2023 7.31809 15.2527 7.30543 15.2989 7.27879L15.8412 6.96567C15.9813 6.88477 16.0293 6.70559 15.9484 6.56547Z" fill="#B88B00"/>
<path d="M5.10127 12.8282C5.02037 12.688 4.84119 12.64 4.70108 12.721L4.15873 13.0341C4.01861 13.115 3.97061 13.2942 4.05151 13.4343C4.10576 13.5283 4.20424 13.5808 4.30549 13.5808C4.35518 13.5808 4.40557 13.5682 4.4517 13.5415L4.99404 13.2284C5.13416 13.1475 5.18217 12.9683 5.10127 12.8282Z" fill="#B88B00"/>
<path d="M7.27903 4.7011L6.96591 4.15876C6.88501 4.0186 6.70583 3.97059 6.56571 4.05153C6.4256 4.13243 6.37759 4.31161 6.45849 4.45173L6.77161 4.99407C6.82587 5.08805 6.92435 5.14059 7.0256 5.14059C7.07528 5.14059 7.12568 5.12794 7.17181 5.1013C7.31193 5.0204 7.35993 4.84122 7.27903 4.7011Z" fill="#B88B00"/>
<path d="M13.5416 15.5483L13.2285 15.0059C13.1476 14.8658 12.9684 14.8178 12.8283 14.8987C12.6882 14.9796 12.6402 15.1588 12.7211 15.2989L13.0342 15.8412C13.0884 15.9352 13.1869 15.9878 13.2882 15.9878C13.3379 15.9878 13.3882 15.9751 13.4344 15.9485C13.5745 15.8676 13.6225 15.6884 13.5416 15.5483Z" fill="#B88B00"/>
<path d="M14.3603 9.32938C14.3357 9.1695 14.1864 9.05977 14.0262 9.08438L10.8163 9.57821C10.6631 9.28313 10.3548 9.08099 10.0001 9.08099C9.85333 9.08099 9.71457 9.11575 9.59137 9.1772L6.44969 6.03552C6.33528 5.9211 6.14977 5.9211 6.0354 6.03552C5.92098 6.14993 5.92098 6.33544 6.0354 6.44981L9.17708 9.59149C9.11563 9.7147 9.08086 9.85345 9.08086 10.0002C9.08086 10.5071 9.49325 10.9194 10.0001 10.9194C10.4534 10.9194 10.8308 10.5895 10.9056 10.1573L14.1153 9.66352C14.2752 9.63888 14.3849 9.48931 14.3603 9.32938ZM10 10.3335C9.81625 10.3335 9.66676 10.184 9.66676 10.0002C9.66676 9.81645 9.81629 9.66692 10 9.66692C10.1838 9.66692 10.3333 9.81645 10.3333 10.0002C10.3333 10.184 10.1838 10.3335 10 10.3335Z" fill="#B88B00"/>
<path d="M15.2636 3.81808C13.7143 2.49636 11.7369 1.80983 9.69532 1.88554C7.64231 1.96144 5.7111 2.80382 4.25751 4.25741C2.80391 5.71101 1.96153 7.64222 1.88563 9.69522C1.81013 11.7367 2.49645 13.7143 3.81817 15.2635C3.8761 15.3314 3.95837 15.3663 4.04118 15.3663C4.10845 15.3663 4.17602 15.3433 4.23118 15.2962C4.35427 15.1912 4.36891 15.0063 4.26391 14.8832C3.03778 13.446 2.40106 11.6113 2.47114 9.71687C2.54157 7.81214 3.32313 6.02042 4.67181 4.67171C6.02048 3.323 7.81224 2.54147 9.71696 2.47105C11.6115 2.40101 13.4461 3.03769 14.8833 4.26382C15.0063 4.36882 15.1913 4.35417 15.2963 4.23108C15.4013 4.108 15.3866 3.92308 15.2636 3.81808Z" fill="#B88B00"/>
<path d="M16.1819 4.73663C16.0769 4.61354 15.892 4.59885 15.7689 4.70389C15.6458 4.80889 15.6311 4.99381 15.7361 5.1169C16.9623 6.55409 17.5989 8.38885 17.5289 10.2832C17.4585 12.188 16.6769 13.9797 15.3282 15.3284C13.9796 16.6771 12.1878 17.4586 10.2831 17.529C8.38887 17.5992 6.55395 16.9624 5.11676 15.7363C4.99371 15.6313 4.80875 15.6459 4.70375 15.769C4.59875 15.8921 4.6134 16.077 4.73649 16.182C6.20864 17.438 8.06746 18.1202 10.0006 18.1202C10.1017 18.1202 10.2032 18.1183 10.3048 18.1146C12.3578 18.0387 14.289 17.1963 15.7426 15.7427C17.1962 14.2891 18.0386 12.3579 18.1145 10.3049C18.1899 8.26338 17.5036 6.28584 16.1819 4.73663Z" fill="#B88B00"/>
</g>
<defs>
<clipPath id="clip0_1_2698">
<rect width="20" height="20" fill="white"/>
</clipPath>
</defs>
</svg>
