<svg width="65" height="65" viewBox="0 0 65 65" fill="none" xmlns="http://www.w3.org/2000/svg">
<path d="M32.494 26.6301C29.2615 26.6301 26.6235 29.2681 26.6235 32.5007C26.6235 35.7332 29.2615 38.3712 32.494 38.3712C35.7265 38.3712 38.3644 35.7332 38.3644 32.5007C38.3644 29.2681 35.7265 26.6301 32.494 26.6301ZM50.1009 32.5007C50.1009 30.0696 50.1229 27.6606 49.9864 25.234C49.8499 22.4155 49.2069 19.914 47.1459 17.8529C45.0804 15.7874 42.5834 15.1488 39.7649 15.0123C37.3339 14.8758 34.9249 14.8978 32.4984 14.8978C30.0674 14.8978 27.6584 14.8758 25.2319 15.0123C22.4134 15.1488 19.9119 15.7918 17.8509 17.8529C15.7854 19.9184 15.1469 22.4155 15.0103 25.234C14.8738 27.665 14.8958 30.074 14.8958 32.5007C14.8958 34.9273 14.8738 37.3407 15.0103 39.7673C15.1469 42.5858 15.7898 45.0873 17.8509 47.1484C19.9163 49.2139 22.4134 49.8525 25.2319 49.989C27.6628 50.1255 30.0718 50.1035 32.4984 50.1035C34.9293 50.1035 37.3383 50.1255 39.7649 49.989C42.5834 49.8525 45.0848 49.2095 47.1459 47.1484C49.2113 45.0829 49.8499 42.5858 49.9864 39.7673C50.1273 37.3407 50.1009 34.9317 50.1009 32.5007ZM32.494 41.5333C27.4955 41.5333 23.4615 37.4992 23.4615 32.5007C23.4615 27.5021 27.4955 23.468 32.494 23.468C37.4924 23.468 41.5264 27.5021 41.5264 32.5007C41.5264 37.4992 37.4924 41.5333 32.494 41.5333ZM41.8964 25.2076C40.7293 25.2076 39.7869 24.2651 39.7869 23.0981C39.7869 21.931 40.7293 20.9886 41.8964 20.9886C43.0634 20.9886 44.0059 21.931 44.0059 23.0981C44.0062 23.3752 43.9519 23.6497 43.846 23.9058C43.7401 24.1619 43.5847 24.3946 43.3888 24.5905C43.1928 24.7865 42.9601 24.9418 42.704 25.0477C42.448 25.1536 42.1735 25.2079 41.8964 25.2076Z" fill="white"/>
<rect x="0.5" y="0.5" width="64" height="64" rx="32" stroke="white"/>
</svg>
