<svg width="167" height="43" viewBox="0 0 167 43" fill="none" xmlns="http://www.w3.org/2000/svg">
<path d="M47.548 41.721L45.1601 35.5864H44.2796L41.8769 41.721L39.5189 35.5864H38.5488L41.3694 42.7698H42.3246L44.6975 36.9082L47.0704 42.8272H48.0256L50.8611 35.6439H49.8761L47.548 41.721ZM34.2805 35.9743C33.8614 35.7322 33.3958 35.5738 32.9117 35.5085C32.4276 35.4432 31.9348 35.4725 31.4627 35.5945C30.9906 35.7165 30.5488 35.9288 30.1637 36.2186C29.7786 36.5085 29.4581 36.87 29.2213 37.2817C28.8993 37.8652 28.735 38.5174 28.7437 39.1781C28.7283 39.8386 28.904 40.4902 29.2511 41.0601C29.5745 41.6183 30.0558 42.0766 30.6391 42.3819C31.2055 42.6612 31.8272 42.821 32.4629 42.8507C33.0985 42.8805 33.7334 42.7794 34.3253 42.5543C34.8122 42.36 35.2426 42.0542 35.5789 41.6635L35.0118 41.0314C34.7284 41.3354 34.3829 41.5799 33.997 41.7497C33.5894 41.9083 33.153 41.9865 32.7135 41.9796C31.9612 42.008 31.2256 41.7617 30.654 41.29C30.3871 41.0609 30.1704 40.7827 30.0166 40.4718C29.8628 40.161 29.7751 39.8237 29.7585 39.4798H36.0266V39.1781C36.0418 38.5139 35.8826 37.8567 35.564 37.2673C35.2604 36.7436 34.8174 36.3073 34.2805 36.0031V35.9743ZM29.8033 38.7471C29.8463 38.0874 30.1445 37.4672 30.6391 37.0087C31.1427 36.5834 31.7898 36.3489 32.4598 36.3489C33.1298 36.3489 33.7769 36.5834 34.2805 37.0087C34.7813 37.463 35.0806 38.0857 35.1163 38.7471H29.8033ZM1.05961 36.98V35.5433H0.0895406V42.7267H1.08945V39.0488C1.05128 38.3352 1.29072 37.6334 1.76103 37.0805C2.00279 36.8432 2.294 36.6577 2.61552 36.5364C2.93704 36.4151 3.2816 36.3606 3.62654 36.3766H3.86532V35.4428C3.26117 35.4193 2.66064 35.5428 2.11921 35.8019C1.60955 36.0599 1.21641 36.4895 1.01483 37.0087L1.05961 36.98ZM30.8181 23.7626C33.2598 23.7626 35.6466 23.0654 37.6766 21.7592C39.7066 20.4531 41.2885 18.5966 42.2223 16.4247C43.156 14.2529 43.3995 11.8632 42.9221 9.55808C42.4446 7.25295 41.2677 5.13593 39.5401 3.47487C37.8125 1.81382 35.6119 0.683371 33.2168 0.226552C30.8217 -0.230266 28.3396 0.00707247 26.0846 0.908543C23.8297 1.81001 21.9031 3.33511 20.5487 5.29086C19.1944 7.24662 18.473 9.54515 18.476 11.8957C18.472 15.0418 19.7644 18.061 22.0698 20.2911C24.3751 22.5211 27.5052 23.7799 30.7734 23.7913L30.8181 23.7626ZM31.1017 1.96825C33.8367 1.96825 36.4598 3.01417 38.3937 4.87592C40.3277 6.73768 41.4142 9.26274 41.4142 11.8957C41.4142 14.5286 40.3277 17.0537 38.3937 18.9154C36.4598 20.7772 33.8367 21.8231 31.1017 21.8231C25.5798 21.8231 21.416 17.5131 21.416 11.8957C21.416 6.27826 25.535 1.99698 31.0569 1.99698L31.1017 1.96825ZM12.2228 36.0031C11.6568 35.6874 11.0112 35.5283 10.3573 35.5433C9.7035 35.5298 9.05836 35.6887 8.49178 36.0031C7.93408 36.3101 7.47859 36.7636 7.17846 37.3104C6.84953 37.8914 6.68485 38.5454 6.70089 39.2068C6.6885 39.8652 6.85849 40.5148 7.19339 41.0889C7.51675 41.647 7.99805 42.1054 8.58132 42.4106C9.20972 42.7339 9.91354 42.8971 10.6259 42.8847C11.1933 42.89 11.7563 42.7875 12.2825 42.583C12.7649 42.3882 13.1903 42.0824 13.5212 41.6923L12.9541 41.0601C12.6727 41.3664 12.3267 41.6113 11.9392 41.7785C11.5317 41.937 11.0953 42.0152 10.6558 42.0084C9.90857 42.0331 9.17893 41.787 8.61117 41.3188C8.33954 41.0925 8.11871 40.8152 7.96218 40.504C7.80566 40.1927 7.71672 39.854 7.7008 39.5085H14.0584V39.2068C14.069 38.5414 13.9047 37.8841 13.5809 37.2961C13.2612 36.7524 12.791 36.3048 12.2228 36.0031ZM7.74557 38.7758C7.79419 38.1175 8.09148 37.4992 8.58132 37.0375C9.08738 36.6111 9.73701 36.3761 10.4095 36.3761C11.082 36.3761 11.7317 36.6111 12.2377 37.0375C12.7323 37.496 13.0304 38.1162 13.0735 38.7758H7.74557ZM148.211 23.7913C150.652 23.7913 153.039 23.0941 155.069 21.788C157.099 20.4818 158.681 18.6253 159.615 16.4535C160.548 14.2816 160.792 11.8919 160.315 9.58681C159.837 7.28167 158.66 5.16466 156.933 3.5036C155.205 1.84255 153.004 0.7121 150.609 0.255281C148.214 -0.201538 145.732 0.0358011 143.477 0.937272C141.222 1.83874 139.296 3.36383 137.941 5.31959C136.587 7.27535 135.865 9.57389 135.868 11.9244C135.876 15.0644 137.173 18.0741 139.477 20.2971C141.781 22.5201 144.904 23.7762 148.166 23.7913H148.211ZM147.927 1.99698C153.449 1.99698 157.613 6.307 157.613 11.9244C157.613 17.5418 153.449 21.8518 147.927 21.8518C145.192 21.8518 142.569 20.8059 140.635 18.9441C138.701 17.0824 137.615 14.5573 137.615 11.9244C137.615 9.29148 138.701 6.76641 140.635 4.90465C142.569 3.0429 145.192 1.99698 147.927 1.99698ZM117.915 11.7951L128.959 11.9675L129.377 23.7913H130.75L131.182 0.0574688H128.526L128.884 9.86995L117.855 10.0567L117.497 4.84262e-07H116.109L115.691 23.7339H118.333L117.915 11.7951ZM10.3125 10.7607C11.3566 10.012 12.1283 8.96493 12.5175 7.76896C12.9067 6.57298 12.8936 5.28922 12.4799 4.10088C12.0662 2.91254 11.2731 1.88035 10.2139 1.15166C9.15466 0.42296 7.88338 0.03498 6.5815 0.0430989H0.432793L0 23.777H7.26801C8.88935 23.7853 10.4647 23.2583 11.7313 22.2839C12.9979 21.3095 13.8792 19.9465 14.2283 18.4223C14.5775 16.8981 14.3733 15.3048 13.6499 13.9079C12.9264 12.5111 11.7274 11.3952 10.2528 10.7463L10.3125 10.7607ZM1.91028 1.58035H6.38749C7.02557 1.48569 7.67737 1.525 8.29819 1.69557C8.91901 1.86615 9.49417 2.16395 9.98422 2.56857C10.4743 2.97319 10.8676 3.47505 11.1373 4.03974C11.407 4.60442 11.5466 5.21858 11.5466 5.84008C11.5466 6.46159 11.407 7.07574 11.1373 7.64043C10.8676 8.20512 10.4743 8.70698 9.98422 9.1116C9.49417 9.51622 8.91901 9.81402 8.29819 9.98459C7.67737 10.1552 7.02557 10.1945 6.38749 10.0998H2.11921L1.91028 1.58035ZM7.02922 21.1047H2.55201L2.23861 12.0537H7.02922C7.65069 12.0618 8.26384 12.1923 8.83091 12.4373C9.39797 12.6822 9.90692 13.0363 10.3264 13.4778C10.7459 13.9193 11.067 14.4388 11.2699 15.0043C11.4729 15.5698 11.5534 16.1694 11.5064 16.766C11.5431 17.3425 11.4527 17.92 11.2411 18.4604C11.0294 19.0009 10.7014 19.4922 10.2786 19.9019C9.85574 20.3117 9.34761 20.6307 8.78759 20.838C8.22757 21.0453 7.62833 21.1362 7.02922 21.1047ZM21.7593 35.6008C21.1704 35.5868 20.5867 35.71 20.0579 35.9599C19.5827 36.189 19.1843 36.5426 18.9088 36.98V35.6439H17.9387V42.8272H18.9535V39.0344C18.9333 38.6871 18.9849 38.3394 19.1053 38.0114C19.2257 37.6834 19.4125 37.3816 19.655 37.1236C19.9103 36.8887 20.2127 36.7064 20.5437 36.5878C20.8747 36.4692 21.2274 36.4169 21.5802 36.4341C21.8861 36.4144 22.1928 36.4566 22.4807 36.5581C22.7686 36.6595 23.0313 36.8179 23.2517 37.0231C23.6701 37.498 23.879 38.1116 23.8337 38.7327V42.8272H24.8485V38.6322C24.8774 38.2146 24.8183 37.7956 24.6747 37.4006C24.5311 37.0056 24.3059 36.6426 24.0128 36.3335C23.4001 35.7929 22.5895 35.5087 21.7593 35.5433V35.6008ZM149.121 36.0605C148.523 35.7444 147.848 35.5858 147.166 35.6008C146.488 35.5856 145.819 35.7443 145.226 36.0605C144.651 36.3653 144.176 36.8179 143.853 37.3679C143.515 37.9466 143.34 38.6004 143.345 39.2643C143.338 39.9239 143.513 40.5736 143.853 41.1463C144.175 41.7007 144.65 42.1582 145.226 42.4681C145.817 42.7893 146.487 42.9529 147.166 42.9422C147.85 42.9527 148.524 42.7892 149.121 42.4681C149.697 42.1582 150.172 41.7007 150.494 41.1463C150.818 40.5687 150.982 39.9207 150.972 39.2643C150.98 38.6036 150.816 37.9514 150.494 37.3679C150.18 36.7968 149.704 36.3234 149.121 36.0031V36.0605ZM149.599 40.7297C149.375 41.1484 149.027 41.4935 148.599 41.721C148.144 41.9658 147.627 42.0851 147.106 42.0658C146.586 42.0781 146.072 41.9592 145.614 41.721C145.193 41.4886 144.851 41.1444 144.629 40.7297C144.384 40.2746 144.256 39.7696 144.256 39.2571C144.256 38.7446 144.384 38.2397 144.629 37.7845C144.851 37.3698 145.193 37.0256 145.614 36.7932C146.072 36.555 146.586 36.4362 147.106 36.4484C147.627 36.4291 148.144 36.5484 148.599 36.7932C149.027 37.0207 149.375 37.3658 149.599 37.7845C149.834 38.2423 149.957 38.7463 149.957 39.2571C149.957 39.768 149.834 40.2719 149.599 40.7297ZM139.793 42.0084C139.6 42.066 139.399 42.0951 139.197 42.0945C139.02 42.1044 138.843 42.0802 138.677 42.0234C138.51 41.9667 138.357 41.8785 138.226 41.7641C137.988 41.4928 137.87 41.1417 137.898 40.7872V36.4771H140.167V35.6439H137.928V34.0348H136.913V35.6151H135.57V36.4484H136.913V40.7584C136.883 41.043 136.919 41.3305 137.018 41.6C137.118 41.8695 137.278 42.1143 137.488 42.3166C137.699 42.5188 137.953 42.6735 138.233 42.7693C138.513 42.8651 138.811 42.8996 139.107 42.8703C139.406 42.8652 139.703 42.8168 139.987 42.7267C140.246 42.6517 140.485 42.5244 140.689 42.3531L140.331 41.6492C140.176 41.785 139.993 41.8877 139.793 41.9509V42.0084ZM130.988 36.0605C130.422 35.7448 129.777 35.5857 129.123 35.6008C128.469 35.5872 127.824 35.7462 127.257 36.0605C126.7 36.3676 126.244 36.821 125.944 37.3679C125.615 37.9489 125.45 38.6028 125.466 39.2643C125.454 39.9226 125.624 40.5722 125.959 41.1463C126.291 41.6981 126.77 42.1545 127.347 42.4681C127.975 42.7913 128.679 42.9545 129.391 42.9422C129.959 42.949 130.522 42.8465 131.048 42.6405C131.53 42.4457 131.956 42.1398 132.287 41.7497L131.72 41.1176C131.438 41.4238 131.092 41.6687 130.705 41.8359C130.297 41.9945 129.861 42.0727 129.421 42.0658C128.674 42.0906 127.944 41.8445 127.377 41.3762C127.105 41.1509 126.885 40.8735 126.731 40.5619C126.577 40.2502 126.492 39.9111 126.481 39.566H132.749V39.2643C132.76 38.5988 132.596 37.9416 132.272 37.3535C131.981 36.7982 131.537 36.3309 130.988 36.0031V36.0605ZM126.511 38.8333C126.549 38.1753 126.842 37.5549 127.332 37.0949C127.838 36.6686 128.488 36.4335 129.16 36.4335C129.833 36.4335 130.482 36.6686 130.988 37.0949C131.483 37.5534 131.781 38.1736 131.824 38.8333H126.511ZM160.448 35.6439H159.329L157.076 38.5172L154.822 35.6439H153.688L156.508 39.1637L153.524 42.8703H154.658L157.046 39.8533L159.434 42.8703H160.583L157.598 39.1637L160.448 35.6439ZM120.527 37.0805C120.233 36.6312 119.821 36.2645 119.333 36.0174C118.819 35.7711 118.25 35.6478 117.676 35.6582C117.008 35.6468 116.349 35.8054 115.766 36.118C115.201 36.4144 114.739 36.864 114.438 37.411C114.115 37.9974 113.946 38.651 113.946 39.3146C113.946 39.9782 114.115 40.6318 114.438 41.2182C114.743 41.766 115.204 42.2194 115.766 42.5256C116.348 42.8431 117.007 43.0067 117.676 42.9997C118.268 43.0076 118.852 42.8744 119.377 42.6118C119.875 42.3506 120.288 41.963 120.571 41.4911V42.9278H121.512V32.5981H120.497L120.527 37.0805ZM120.183 40.7872C119.955 41.2029 119.608 41.5469 119.183 41.7785C118.746 42.0073 118.256 42.1272 117.758 42.1272C117.26 42.1272 116.77 42.0073 116.333 41.7785C115.911 41.5426 115.565 41.1997 115.333 40.7872C115.098 40.3294 114.975 39.8254 114.975 39.3146C114.975 38.8037 115.098 38.2998 115.333 37.842C115.565 37.4295 115.911 37.0865 116.333 36.8507C116.77 36.6218 117.26 36.502 117.758 36.502C118.256 36.502 118.746 36.6218 119.183 36.8507C119.608 37.0822 119.955 37.4263 120.183 37.842C120.419 38.2998 120.541 38.8037 120.541 39.3146C120.541 39.8254 120.419 40.3294 120.183 40.7872ZM164.538 10.9906H165.911L167 0.172405H163.896L164.538 10.9906ZM103.349 37.0805C103.055 36.6312 102.643 36.2645 102.155 36.0174C101.641 35.7711 101.073 35.6478 100.498 35.6582C99.8308 35.6468 99.1718 35.8054 98.5882 36.118C98.0234 36.4144 97.5616 36.864 97.26 37.411C96.9372 37.9974 96.7684 38.651 96.7684 39.3146C96.7684 39.9782 96.9372 40.6318 97.26 41.2182C97.5655 41.766 98.026 42.2194 98.5882 42.5256C99.1703 42.8431 99.8294 43.0067 100.498 42.9997C101.09 43.0076 101.675 42.8744 102.2 42.6118C102.697 42.3506 103.11 41.963 103.394 41.4911V42.9278H104.364V32.5981H103.349V37.0805ZM103.006 40.7872C102.782 41.2059 102.434 41.551 102.006 41.7785C101.568 42.0073 101.078 42.1272 100.581 42.1272C100.083 42.1272 99.5927 42.0073 99.1553 41.7785C98.7338 41.5426 98.3879 41.1997 98.1554 40.7872C97.9199 40.3294 97.7974 39.8254 97.7974 39.3146C97.7974 38.8037 97.9199 38.2998 98.1554 37.842C98.3879 37.4295 98.7338 37.0865 99.1553 36.8507C99.5927 36.6218 100.083 36.502 100.581 36.502C101.078 36.502 101.568 36.6218 102.006 36.8507C102.434 37.0782 102.782 37.4233 103.006 37.842C103.241 38.2998 103.364 38.8037 103.364 39.3146C103.364 39.8254 103.241 40.3294 103.006 40.7872ZM64.3375 42.9278H65.3524V32.5981H64.3375V42.9278ZM93.1559 1.88205L100.528 2.16938L101.319 23.7913H102.707L103.095 2.24122L111.781 2.58602V0.0287401L93.1559 0.33044V1.88205ZM78.2318 35.5433C77.6645 35.5355 77.0997 35.618 76.5603 35.7876C76.0598 35.9418 75.594 36.1855 75.1873 36.5059L75.635 37.2386C75.971 36.9646 76.3551 36.7505 76.7693 36.6065C77.2113 36.4618 77.6754 36.389 78.1423 36.391C78.7192 36.3604 79.286 36.5457 79.7242 36.9082C79.9154 37.0966 80.0624 37.3224 80.1551 37.5703C80.2478 37.8182 80.2841 38.0823 80.2615 38.3448V38.7758H77.8736C77.0972 38.7142 76.3224 38.9121 75.6798 39.3361C75.4578 39.5236 75.28 39.7544 75.1581 40.0133C75.0363 40.2723 74.9732 40.5532 74.9732 40.8375C74.9732 41.1217 75.0363 41.4027 75.1581 41.6616C75.28 41.9205 75.4578 42.1514 75.6798 42.3388C76.2544 42.7541 76.962 42.9625 77.6796 42.9278C78.2247 42.9364 78.765 42.8284 79.2616 42.6118C79.6802 42.4182 80.0286 42.1078 80.2615 41.721V42.856H81.2315V38.3448C81.2585 37.9636 81.202 37.5813 81.0658 37.2224C80.9295 36.8636 80.7165 36.5363 80.4406 36.2617C79.8269 35.759 79.0364 35.5019 78.2318 35.5433ZM80.2615 40.6435C80.0834 41.0897 79.7651 41.4714 79.3511 41.7354C78.9006 41.9938 78.3829 42.1234 77.8587 42.1089C77.3675 42.1404 76.8794 42.0141 76.4708 41.7497C76.3082 41.6339 76.1772 41.482 76.0888 41.3069C76.0004 41.1318 75.9574 40.9387 75.9634 40.7441C75.9634 39.8964 76.6051 39.4654 77.8886 39.4654H80.2466L80.2615 40.6435ZM51.6073 0.0430989H47.3987L47.8315 23.7913H51.6073C54.8044 23.6843 57.8335 22.3863 60.0559 20.1712C62.2783 17.9561 63.5204 14.9968 63.5204 11.9172C63.5204 8.83763 62.2783 5.87835 60.0559 3.66322C57.8335 1.44809 54.8044 0.150171 51.6073 0.0430989ZM51.6073 22.1535H49.2642L49.9508 3.06012H51.6073C52.9 2.99697 54.1922 3.19434 55.4011 3.63961C56.61 4.08487 57.709 4.76822 58.6278 5.64591C59.5465 6.5236 60.2648 7.57629 60.7366 8.73659C61.2084 9.8969 61.4233 11.1393 61.3676 12.3841C61.4242 13.6501 61.2133 14.9139 60.7478 16.0992C60.2823 17.2844 59.5718 18.3664 58.6594 19.2797C57.747 20.193 56.6515 20.9186 55.4394 21.4125C54.2272 21.9065 52.9236 22.1586 51.6073 22.1535ZM56.6517 35.5433C56.0843 35.5355 55.5195 35.618 54.9802 35.7876C54.4796 35.9418 54.0138 36.1855 53.6071 36.5059L54.0698 37.2386C54.3982 36.9618 54.7779 36.7474 55.1891 36.6065C55.6312 36.4618 56.0952 36.389 56.5621 36.391C57.1352 36.3509 57.7021 36.526 58.1441 36.8794C58.3353 37.0679 58.4822 37.2937 58.5749 37.5415C58.6676 37.7894 58.7039 38.0535 58.6813 38.3161V38.7471H56.3084C55.5271 38.6833 54.7468 38.8812 54.0996 39.3074C53.8777 39.4948 53.6998 39.7257 53.578 39.9846C53.4561 40.2435 53.3931 40.5245 53.3931 40.8087C53.3931 41.093 53.4561 41.3739 53.578 41.6328C53.6998 41.8917 53.8777 42.1226 54.0996 42.31C54.6743 42.7253 55.3818 42.9337 56.0995 42.8991C56.6446 42.9076 57.1849 42.7997 57.6814 42.583C58.1 42.3895 58.4485 42.0791 58.6813 41.6923V42.8272H59.6514V38.3448C59.6783 37.9636 59.6218 37.5813 59.4856 37.2224C59.3493 36.8636 59.1363 36.5363 58.8604 36.2617C58.2467 35.759 57.4563 35.5019 56.6517 35.5433ZM58.6813 40.6435C58.5032 41.0897 58.185 41.4714 57.771 41.7354C57.3218 41.9968 56.8032 42.1266 56.2786 42.1089C55.7825 42.1425 55.2889 42.0161 54.8757 41.7497C54.7131 41.6339 54.5821 41.482 54.4937 41.3069C54.4054 41.1318 54.3623 40.9387 54.3683 40.7441C54.3683 39.8964 55.0249 39.4654 56.2935 39.4654H58.6813V40.6435ZM89.7681 35.5433C89.1792 35.5294 88.5955 35.6526 88.0668 35.9025C87.5915 36.1315 87.1932 36.4851 86.9176 36.9225V35.5864H85.9475V42.7698H86.9624V38.977C86.9422 38.6296 86.9937 38.2819 87.1142 37.9539C87.2346 37.6259 87.4214 37.3242 87.6638 37.0662C87.9191 36.8312 88.2215 36.6489 88.5526 36.5303C88.8836 36.4118 89.2363 36.3594 89.589 36.3766C89.8928 36.3553 90.1978 36.3968 90.4835 36.4984C90.7693 36.6 91.0291 36.7593 91.2456 36.9656C91.4582 37.198 91.6206 37.4689 91.7231 37.7625C91.8256 38.0561 91.8662 38.3664 91.8425 38.6753V42.7698H92.8425V38.5747C92.8734 38.1581 92.8166 37.7398 92.6756 37.3448C92.5345 36.9498 92.3121 36.5863 92.0216 36.276C91.3996 35.7562 90.5901 35.493 89.7681 35.5433ZM74.5903 10.2866L67.1283 0.0430989H65.3971L73.7098 12.2548L73.083 23.7482H75.7544L75.5306 11.91L84.485 4.84262e-07H81.2166L74.5903 10.2866Z" fill="white"/>
</svg>
