<svg width="328" height="328" viewBox="0 0 328 328" fill="none" xmlns="http://www.w3.org/2000/svg">
<g clip-path="url(#clip0_1_228)">
<path d="M111.637 202.817L108.113 193.413H106.814L103.268 202.817L99.7884 193.413H98.3568L102.519 204.425H103.929L107.431 195.439L110.932 204.513H112.342L116.526 193.501H115.073L111.637 202.817ZM92.058 194.007C91.4395 193.636 90.7525 193.393 90.0381 193.293C89.3237 193.193 88.5964 193.238 87.8997 193.425C87.203 193.612 86.551 193.938 85.9828 194.382C85.4145 194.826 84.9415 195.38 84.592 196.012C84.1168 196.906 83.8744 197.906 83.8872 198.919C83.8645 199.931 84.1237 200.93 84.636 201.804C85.1132 202.659 85.8235 203.362 86.6842 203.83C87.5201 204.258 88.4376 204.503 89.3757 204.549C90.3137 204.594 91.2507 204.439 92.1241 204.094C92.8427 203.796 93.4777 203.328 93.9741 202.729L93.1372 201.76C92.7189 202.226 92.2091 202.601 91.6396 202.861C91.0382 203.104 90.3941 203.224 89.7455 203.213C88.6354 203.257 87.5498 202.879 86.7063 202.156C86.3124 201.805 85.9926 201.378 85.7657 200.902C85.5387 200.425 85.4093 199.908 85.3848 199.381H94.6348V198.919C94.6571 197.9 94.4223 196.893 93.9521 195.99C93.5041 195.187 92.8503 194.518 92.058 194.051V194.007ZM85.4509 198.258C85.5144 197.247 85.9544 196.296 86.6842 195.593C87.4275 194.941 88.3824 194.582 89.3711 194.582C90.3598 194.582 91.3148 194.941 92.058 195.593C92.797 196.289 93.2388 197.244 93.2914 198.258H85.4509ZM43.0331 195.549V193.347H41.6016V204.359H43.0772V198.721C43.0208 197.627 43.3742 196.551 44.0682 195.703C44.425 195.339 44.8547 195.055 45.3292 194.869C45.8037 194.683 46.3122 194.6 46.8212 194.624H47.1736V193.193C46.282 193.157 45.3958 193.346 44.5968 193.743C43.8447 194.139 43.2645 194.797 42.967 195.593L43.0331 195.549ZM86.9485 175.287C90.5518 175.287 94.0741 174.218 97.0698 172.216C100.065 170.214 102.4 167.368 103.778 164.039C105.156 160.709 105.515 157.046 104.811 153.512C104.106 149.978 102.369 146.733 99.8197 144.187C97.2703 141.64 94.0229 139.907 90.4883 139.207C86.9537 138.507 83.2909 138.871 79.9632 140.253C76.6355 141.635 73.7924 143.972 71.7937 146.971C69.795 149.969 68.7305 153.492 68.7349 157.096C68.729 161.919 70.6363 166.547 74.0384 169.965C77.4404 173.384 82.0595 175.314 86.8824 175.331L86.9485 175.287ZM87.367 141.877C91.4031 141.877 95.274 143.48 98.128 146.335C100.982 149.189 102.585 153.059 102.585 157.096C102.585 161.132 100.982 165.003 98.128 167.857C95.274 170.711 91.4031 172.314 87.367 172.314C79.2182 172.314 73.0735 165.707 73.0735 157.096C73.0735 148.484 79.1521 141.921 87.3009 141.921L87.367 141.877ZM59.5069 194.051C58.6716 193.568 57.719 193.324 56.7539 193.347C55.7891 193.326 54.8371 193.57 54.0009 194.051C53.1779 194.522 52.5058 195.217 52.0629 196.056C51.5774 196.946 51.3344 197.949 51.3581 198.963C51.3398 199.972 51.5907 200.968 52.0849 201.848C52.5621 202.704 53.2723 203.406 54.1331 203.874C55.0604 204.37 56.0991 204.62 57.1503 204.601C57.9877 204.609 58.8185 204.452 59.595 204.138C60.3069 203.84 60.9347 203.371 61.423 202.773L60.5861 201.804C60.1709 202.273 59.6603 202.649 59.0884 202.905C58.487 203.148 57.843 203.268 57.1944 203.257C56.0917 203.295 55.015 202.918 54.1771 202.2C53.7763 201.853 53.4504 201.428 53.2194 200.951C52.9884 200.474 52.8572 199.955 52.8337 199.425H62.2158V198.963C62.2314 197.943 61.9889 196.935 61.5111 196.034C61.0393 195.2 60.3455 194.514 59.5069 194.051ZM52.8998 198.302C52.9715 197.293 53.4102 196.345 54.1331 195.637C54.8799 194.984 55.8386 194.623 56.831 194.623C57.8234 194.623 58.7821 194.984 59.5289 195.637C60.2587 196.34 60.6987 197.291 60.7622 198.302H52.8998ZM260.188 175.331C263.791 175.331 267.313 174.262 270.309 172.26C273.304 170.258 275.639 167.412 277.017 164.083C278.395 160.753 278.754 157.09 278.05 153.556C277.345 150.022 275.608 146.777 273.059 144.231C270.509 141.684 267.262 139.951 263.727 139.251C260.193 138.551 256.53 138.915 253.202 140.297C249.874 141.679 247.031 144.017 245.033 147.015C243.034 150.013 241.969 153.536 241.974 157.14C241.985 161.953 243.9 166.567 247.299 169.975C250.699 173.383 255.308 175.308 260.121 175.331H260.188ZM259.769 141.921C267.918 141.921 274.062 148.528 274.062 157.14C274.062 165.751 267.918 172.358 259.769 172.358C255.733 172.358 251.862 170.755 249.008 167.901C246.154 165.047 244.551 161.176 244.551 157.14C244.551 153.103 246.154 149.233 249.008 146.379C251.862 143.525 255.733 141.921 259.769 141.921ZM215.479 156.941L231.777 157.206L232.394 175.331H234.42L235.058 138.948H231.138L231.667 153.99L215.391 154.277L214.863 138.86H212.814L212.198 175.243H216.096L215.479 156.941ZM56.6878 155.356C58.2286 154.208 59.3675 152.603 59.9418 150.769C60.5162 148.936 60.4968 146.968 59.8863 145.146C59.2758 143.325 58.1054 141.742 56.5423 140.625C54.9792 139.508 53.1031 138.913 51.1819 138.926H42.1081L41.4694 175.309H52.195C54.5877 175.322 56.9124 174.514 58.7815 173.02C60.6507 171.527 61.9513 169.437 62.4665 167.101C62.9818 164.764 62.6805 162.322 61.6129 160.18C60.5453 158.039 58.7759 156.328 56.5997 155.334L56.6878 155.356ZM44.2885 141.283H50.8956C51.8372 141.137 52.7991 141.198 53.7153 141.459C54.6314 141.721 55.4802 142.177 56.2034 142.797C56.9266 143.418 57.507 144.187 57.905 145.053C58.303 145.918 58.509 146.86 58.509 147.813C58.509 148.765 58.303 149.707 57.905 150.572C57.507 151.438 56.9266 152.207 56.2034 152.828C55.4802 153.448 54.6314 153.904 53.7153 154.166C52.7991 154.427 51.8372 154.488 50.8956 154.343H44.5968L44.2885 141.283ZM51.8426 171.213H45.2355L44.773 157.338H51.8426C52.7597 157.35 53.6646 157.55 54.5014 157.926C55.3382 158.301 56.0893 158.844 56.7083 159.521C57.3274 160.198 57.8012 160.994 58.1007 161.861C58.4002 162.728 58.519 163.647 58.4498 164.562C58.5039 165.445 58.3704 166.331 58.0581 167.159C57.7458 167.988 57.2618 168.741 56.6378 169.369C56.0138 169.997 55.2639 170.486 54.4375 170.804C53.611 171.122 52.7267 171.261 51.8426 171.213ZM73.5801 193.435C72.7111 193.413 71.8497 193.602 71.0694 193.985C70.3681 194.336 69.7802 194.878 69.3735 195.549V193.501H67.942V204.513H69.4396V198.698C69.4098 198.166 69.4859 197.633 69.6636 197.13C69.8413 196.627 70.117 196.165 70.4747 195.769C70.8515 195.409 71.2978 195.13 71.7863 194.948C72.2748 194.766 72.7952 194.686 73.3158 194.712C73.7672 194.682 74.22 194.747 74.6448 194.902C75.0697 195.058 75.4572 195.301 75.7825 195.615C76.4 196.343 76.7082 197.284 76.6414 198.236V204.513H78.139V198.082C78.1817 197.442 78.0944 196.799 77.8825 196.194C77.6705 195.588 77.3382 195.032 76.9057 194.558C76.0016 193.729 74.8054 193.294 73.5801 193.347V193.435ZM261.531 194.14C260.648 193.655 259.653 193.412 258.646 193.435C257.646 193.412 256.658 193.655 255.783 194.14C254.935 194.607 254.233 195.301 253.757 196.144C253.258 197.031 253 198.033 253.008 199.051C252.996 200.062 253.255 201.058 253.757 201.936C254.232 202.786 254.933 203.487 255.783 203.962C256.656 204.455 257.644 204.705 258.646 204.689C259.655 204.705 260.65 204.454 261.531 203.962C262.381 203.487 263.082 202.786 263.557 201.936C264.035 201.05 264.278 200.057 264.262 199.051C264.275 198.038 264.032 197.038 263.557 196.144C263.094 195.268 262.391 194.542 261.531 194.051V194.14ZM262.236 201.297C261.906 201.939 261.392 202.468 260.76 202.817C260.089 203.192 259.327 203.375 258.558 203.345C257.79 203.364 257.031 203.182 256.355 202.817C255.735 202.461 255.23 201.933 254.902 201.297C254.541 200.6 254.352 199.825 254.352 199.04C254.352 198.254 254.541 197.48 254.902 196.782C255.23 196.147 255.735 195.619 256.355 195.263C257.031 194.898 257.79 194.715 258.558 194.734C259.327 194.705 260.089 194.887 260.76 195.263C261.392 195.612 261.906 196.141 262.236 196.782C262.583 197.484 262.764 198.257 262.764 199.04C262.764 199.823 262.583 200.595 262.236 201.297ZM247.766 203.257C247.481 203.346 247.184 203.39 246.885 203.39C246.625 203.405 246.364 203.367 246.118 203.281C245.873 203.194 245.647 203.058 245.454 202.883C245.101 202.467 244.927 201.929 244.969 201.385V194.778H248.317V193.501H245.013V191.034H243.516V193.457H241.533V194.734H243.516V201.341C243.471 201.777 243.524 202.218 243.67 202.631C243.817 203.045 244.054 203.42 244.364 203.73C244.674 204.04 245.05 204.277 245.463 204.424C245.876 204.571 246.317 204.624 246.753 204.579C247.195 204.571 247.633 204.497 248.052 204.359C248.434 204.244 248.787 204.048 249.088 203.786L248.559 202.707C248.33 202.915 248.06 203.073 247.766 203.169V203.257ZM234.772 194.14C233.937 193.656 232.984 193.412 232.019 193.435C231.054 193.414 230.102 193.658 229.266 194.14C228.443 194.61 227.771 195.305 227.328 196.144C226.843 197.034 226.6 198.037 226.623 199.051C226.605 200.06 226.856 201.056 227.35 201.936C227.84 202.782 228.547 203.481 229.398 203.962C230.326 204.458 231.364 204.708 232.416 204.689C233.253 204.699 234.084 204.542 234.86 204.226C235.572 203.928 236.2 203.459 236.688 202.861L235.851 201.892C235.436 202.361 234.925 202.737 234.354 202.993C233.752 203.236 233.108 203.356 232.46 203.345C231.357 203.383 230.28 203.006 229.442 202.288C229.041 201.943 228.717 201.518 228.489 201.04C228.262 200.562 228.136 200.042 228.121 199.513H237.371V199.051C237.386 198.031 237.144 197.023 236.666 196.122C236.237 195.27 235.582 194.554 234.772 194.051V194.14ZM228.165 198.39C228.22 197.381 228.653 196.43 229.376 195.725C230.123 195.072 231.082 194.711 232.074 194.711C233.067 194.711 234.025 195.072 234.772 195.725C235.502 196.428 235.942 197.379 236.005 198.39H228.165ZM278.247 193.501H276.595L273.27 197.906L269.944 193.501H268.27L272.433 198.897L268.028 204.579H269.702L273.226 199.954L276.749 204.579H278.445L274.04 198.897L278.247 193.501ZM163.988 0C131.548 2.92468e-07 99.8377 9.61964 72.8657 27.6424C45.8938 45.6651 24.8721 71.2814 12.4591 101.252C0.0461617 131.222 -3.20051 164.2 3.12968 196.016C9.45986 227.832 25.0826 257.056 48.0221 279.992C70.9617 302.929 100.188 318.547 132.004 324.873C163.821 331.199 196.799 327.948 226.767 315.531C256.736 303.114 282.349 282.089 300.369 255.115C318.388 228.14 328.003 196.428 327.999 163.989C327.952 120.507 310.657 78.8194 279.908 48.075C249.16 17.3306 207.47 0.0408087 163.988 0ZM263.271 284.371C232.438 311.262 192.156 324.014 149.937 320.138C107.711 316.517 68.5982 296.451 41.0289 264.263C27.5135 248.65 17.2885 230.47 10.9667 210.811C4.64485 191.153 2.35618 170.42 4.23781 149.856C6.11944 129.292 12.1326 109.319 21.9172 91.134C31.7017 72.9491 45.0562 56.9263 61.1807 44.0255C90.0381 20.607 126.097 7.87172 163.261 7.97261C168.304 7.97261 173.37 8.21487 178.457 8.65534C265.165 16.5399 324.431 89.3284 316.304 178.018C312.45 220.194 293.62 257.942 263.271 284.371ZM219.223 195.527C218.79 194.838 218.182 194.276 217.461 193.897C216.703 193.52 215.864 193.331 215.017 193.347C214.031 193.329 213.059 193.572 212.198 194.051C211.364 194.506 210.683 195.195 210.238 196.034C209.761 196.933 209.512 197.934 209.512 198.952C209.512 199.969 209.761 200.971 210.238 201.87C210.688 202.71 211.368 203.405 212.198 203.874C213.057 204.361 214.029 204.612 215.017 204.601C215.89 204.613 216.753 204.409 217.527 204.006C218.261 203.606 218.871 203.012 219.289 202.288V204.491H220.787V188.832H219.289L219.223 195.527ZM218.717 201.209C218.38 201.846 217.868 202.374 217.241 202.729C216.596 203.08 215.873 203.263 215.138 203.263C214.403 203.263 213.68 203.08 213.035 202.729C212.413 202.367 211.902 201.842 211.559 201.209C211.212 200.507 211.031 199.735 211.031 198.952C211.031 198.169 211.212 197.396 211.559 196.694C211.902 196.062 212.413 195.536 213.035 195.175C213.68 194.824 214.403 194.64 215.138 194.64C215.873 194.64 216.596 194.824 217.241 195.175C217.868 195.53 218.38 196.057 218.717 196.694C219.064 197.396 219.245 198.169 219.245 198.952C219.245 199.735 219.064 200.507 218.717 201.209ZM284.171 155.532H286.198L287.805 138.948H283.224L284.171 155.532ZM193.874 195.527C193.44 194.838 192.833 194.276 192.112 193.897C191.353 193.52 190.515 193.331 189.667 193.347C188.682 193.329 187.71 193.572 186.848 194.051C186.015 194.506 185.333 195.195 184.888 196.034C184.412 196.933 184.163 197.934 184.163 198.952C184.163 199.969 184.412 200.971 184.888 201.87C185.339 202.71 186.019 203.405 186.848 203.874C187.707 204.361 188.68 204.612 189.667 204.601C190.541 204.613 191.403 204.409 192.178 204.006C192.912 203.606 193.521 203.012 193.94 202.288V204.491H195.372V188.832H193.874V195.527ZM193.367 201.209C193.037 201.851 192.524 202.38 191.892 202.729C191.246 203.08 190.523 203.263 189.789 203.263C189.054 203.263 188.331 203.08 187.685 202.729C187.063 202.367 186.553 201.842 186.21 201.209C185.862 200.507 185.681 199.735 185.681 198.952C185.681 198.169 185.862 197.396 186.21 196.694C186.553 196.062 187.063 195.536 187.685 195.175C188.331 194.824 189.054 194.64 189.789 194.64C190.523 194.64 191.246 194.824 191.892 195.175C192.524 195.523 193.037 196.052 193.367 196.694C193.715 197.396 193.896 198.169 193.896 198.952C193.896 199.735 193.715 200.507 193.367 201.209ZM136.304 204.491H137.801V188.832H136.304V204.491ZM178.942 141.745L189.822 142.185L190.989 175.331H193.037L193.61 142.296L206.427 142.824V138.904L178.942 139.366V141.745ZM156.918 193.347C156.081 193.335 155.247 193.461 154.451 193.721C153.713 193.957 153.025 194.331 152.425 194.822L153.086 195.945C153.582 195.525 154.149 195.197 154.76 194.976C155.412 194.755 156.097 194.643 156.786 194.646C157.637 194.599 158.474 194.883 159.12 195.439C159.403 195.728 159.619 196.074 159.756 196.454C159.893 196.834 159.947 197.239 159.913 197.641V198.302H156.389C155.244 198.208 154.1 198.511 153.152 199.161C152.824 199.448 152.562 199.802 152.382 200.199C152.202 200.596 152.109 201.027 152.109 201.462C152.109 201.898 152.202 202.329 152.382 202.726C152.562 203.123 152.824 203.477 153.152 203.764C154 204.401 155.044 204.72 156.103 204.667C156.908 204.68 157.705 204.515 158.438 204.182C159.055 203.886 159.57 203.41 159.913 202.817V204.557H161.345V197.641C161.385 197.057 161.301 196.471 161.1 195.921C160.899 195.371 160.585 194.869 160.178 194.448C159.272 193.677 158.105 193.283 156.918 193.347ZM159.913 201.165C159.65 201.849 159.181 202.434 158.57 202.839C157.905 203.235 157.141 203.434 156.367 203.412C155.643 203.46 154.922 203.266 154.319 202.861C154.079 202.683 153.886 202.451 153.756 202.182C153.625 201.914 153.562 201.618 153.57 201.319C153.57 200.02 154.517 199.359 156.411 199.359H159.891L159.913 201.165ZM117.628 138.926H111.417L112.056 175.331H117.628C122.346 175.167 126.816 173.177 130.095 169.782C133.375 166.386 135.208 161.85 135.208 157.129C135.208 152.408 133.375 147.871 130.095 144.475C126.816 141.08 122.346 139.09 117.628 138.926ZM117.628 172.821H114.17L115.183 143.551H117.628C119.535 143.454 121.442 143.757 123.226 144.439C125.01 145.122 126.632 146.169 127.988 147.515C129.344 148.86 130.404 150.474 131.1 152.253C131.796 154.031 132.113 155.936 132.031 157.844C132.115 159.785 131.803 161.722 131.116 163.539C130.43 165.356 129.381 167.015 128.035 168.415C126.688 169.815 125.072 170.927 123.283 171.685C121.494 172.442 119.57 172.828 117.628 172.821ZM125.072 193.347C124.234 193.335 123.401 193.461 122.605 193.721C121.866 193.957 121.179 194.331 120.579 194.822L121.262 195.945C121.746 195.521 122.307 195.192 122.913 194.976C123.566 194.755 124.25 194.643 124.94 194.646C125.785 194.585 126.622 194.853 127.274 195.395C127.556 195.684 127.773 196.03 127.91 196.41C128.047 196.79 128.1 197.195 128.067 197.597V198.258H124.565C123.412 198.16 122.261 198.464 121.306 199.117C120.978 199.404 120.716 199.758 120.536 200.155C120.356 200.552 120.263 200.983 120.263 201.418C120.263 201.854 120.356 202.285 120.536 202.682C120.716 203.079 120.978 203.433 121.306 203.72C122.154 204.356 123.198 204.676 124.257 204.623C125.061 204.636 125.859 204.47 126.591 204.138C127.209 203.842 127.723 203.366 128.067 202.773V204.513H129.498V197.641C129.538 197.057 129.455 196.471 129.254 195.921C129.053 195.371 128.738 194.869 128.331 194.448C127.426 193.677 126.259 193.283 125.072 193.347ZM128.067 201.165C127.804 201.849 127.334 202.434 126.723 202.839C126.061 203.24 125.295 203.439 124.521 203.412C123.789 203.463 123.061 203.269 122.451 202.861C122.211 202.683 122.018 202.451 121.887 202.182C121.757 201.914 121.693 201.618 121.702 201.319C121.702 200.02 122.671 199.359 124.543 199.359H128.067V201.165ZM173.942 193.347C173.073 193.325 172.212 193.514 171.432 193.897C170.73 194.248 170.143 194.79 169.736 195.461V193.413H168.304V204.425H169.802V198.61C169.772 198.078 169.848 197.545 170.026 197.042C170.204 196.539 170.479 196.077 170.837 195.681C171.214 195.321 171.66 195.042 172.149 194.86C172.637 194.678 173.158 194.598 173.678 194.624C174.126 194.591 174.577 194.655 174.998 194.811C175.42 194.967 175.803 195.211 176.123 195.527C176.437 195.883 176.676 196.299 176.827 196.749C176.979 197.199 177.039 197.674 177.004 198.148V204.425H178.479V197.994C178.525 197.355 178.441 196.714 178.233 196.108C178.025 195.503 177.697 194.946 177.268 194.47C176.35 193.673 175.155 193.27 173.942 193.347ZM151.544 154.629L140.532 138.926H137.978L150.245 157.646L149.32 175.265H153.262L152.932 157.118L166.146 138.86H161.323L151.544 154.629Z" fill="url(#paint0_linear_1_228)"/>
</g>
<defs>
<linearGradient id="paint0_linear_1_228" x1="7.70693" y1="24.2261" x2="335.861" y2="319.345" gradientUnits="userSpaceOnUse">
<stop stop-color="#B88B00"/>
<stop offset="0.265856" stop-color="#ECBC29"/>
<stop offset="0.488437" stop-color="#B88B00"/>
<stop offset="0.693188" stop-color="#ECBC29"/>
<stop offset="0.979167" stop-color="#B88B00"/>
</linearGradient>
<clipPath id="clip0_1_228">
<rect width="328" height="328" fill="white"/>
</clipPath>
</defs>
</svg>
