<svg width="30" height="30" viewBox="0 0 30 30" fill="none" xmlns="http://www.w3.org/2000/svg">
<g filter="url(#filter0_b_1_992)">
<circle cx="15" cy="15" r="15" fill="white" fill-opacity="0.1"/>
<circle cx="15" cy="15" r="14.5" stroke="white" stroke-opacity="0.2"/>
</g>
<g clip-path="url(#clip0_1_992)">
<path d="M19.0847 15.1547L18.7754 14.8454C18.7715 14.8491 18.3956 15.2188 17.8363 15.2188C17.2837 15.2188 16.9005 14.8484 16.8965 14.8447L16.5879 15.1547C16.6085 15.1753 17.098 15.6563 17.8363 15.6563C18.5746 15.6563 19.0641 15.1753 19.0847 15.1547Z" fill="white"/>
<path d="M15.2754 14.8452C15.2715 14.8489 14.8956 15.2186 14.3363 15.2186C13.7837 15.2186 13.4005 14.8483 13.3972 14.8452L13.0879 15.1545C13.1085 15.1751 13.598 15.6561 14.3363 15.6561C15.0746 15.6561 15.5641 15.1751 15.5847 15.1545L15.2754 14.8452Z" fill="white"/>
<path d="M17.2557 18.4946L17.1172 18.0796C16.3131 18.3478 16.091 18.3478 15.2869 18.0796L15.1484 18.4946C15.5964 18.644 15.8994 18.7186 16.2019 18.7186C16.5045 18.7186 16.8079 18.644 17.2557 18.4946Z" fill="white"/>
<path d="M8.65625 21.5627H10.625C10.746 21.5627 10.8438 21.4647 10.8438 21.3439V20.0314C10.8438 19.187 11.5308 18.5002 12.375 18.5002H13.0312C13.0999 18.5002 13.1651 18.4866 13.2275 18.4669C13.369 18.6533 13.5199 18.8322 13.6796 19.0024V21.5627H14.1171V19.4272C14.1309 19.4393 14.1438 19.4524 14.1576 19.4644C14.4065 19.681 14.6448 19.8409 14.8858 19.9533C15.3115 20.1515 15.7599 20.2486 16.2029 20.2486C16.9077 20.2486 17.5992 20.0025 18.1631 19.525C18.2012 19.4929 18.236 19.4559 18.2734 19.4226V21.5627H18.7109V18.9994C18.8218 18.8819 18.9323 18.7638 19.0344 18.6386L18.6956 18.3615C18.4493 18.6627 18.1749 18.9418 17.8805 19.191C17.0934 19.8564 16.0167 19.9969 15.07 19.5565C14.8666 19.4616 14.662 19.3235 14.4446 19.1343C14.1265 18.8572 13.8358 18.5441 13.5779 18.2051C13.647 18.1016 13.6875 17.9776 13.6875 17.8439V16.3127C13.6875 15.9509 13.3931 15.6564 13.0312 15.6564H12.375H12.3689C12.3199 15.5136 12.2816 15.3863 12.2547 15.2331C12.2626 14.2041 12.9888 12.9258 13.8327 12.5117C14.4555 12.2061 15.147 11.9746 15.8153 11.7511C15.8424 11.7419 15.8693 11.7329 15.8964 11.7239C16.7102 11.9077 17.7239 12.1997 18.4569 12.8205C18.8102 13.12 19.1245 13.5184 19.4459 14.0746C19.541 14.2391 19.6371 14.417 19.758 14.6515C19.8 14.7333 19.8641 14.8484 19.9234 14.9525C20.0103 15.1058 20.0805 15.2694 20.1312 15.4383L20.1498 15.5002C20.1785 15.5956 20.2721 15.6632 20.3668 15.656C20.4661 15.6525 20.5508 15.5825 20.5727 15.4856C20.5762 15.47 20.6593 15.1012 20.6877 14.921C20.7562 14.487 20.8089 14.0147 20.8537 13.435C20.8859 13.0198 20.9165 12.5779 20.9067 12.1433C20.8929 11.5374 20.7575 10.6613 20.1931 9.9267C19.7799 9.38901 19.1678 8.97491 18.4237 8.72948C17.8348 8.53523 17.1744 8.44313 16.3455 8.43963C15.4998 8.43482 14.8062 8.52648 14.1906 8.72466C13.4206 8.97251 12.783 9.39382 12.3466 9.9431C11.8894 10.5189 11.6199 11.2755 11.5672 12.1317C11.5199 12.9004 11.6437 14.7357 11.8301 15.4902C11.8397 15.5291 11.8612 15.561 11.8874 15.5879C11.894 15.6109 11.9012 15.6337 11.9082 15.6564H10.4062C9.32059 15.6564 8.4375 16.5397 8.4375 17.6252V21.3439C8.4375 21.4647 8.53528 21.5627 8.65625 21.5627ZM12.5938 16.0939H13.0312C13.152 16.0939 13.25 16.1921 13.25 16.3127V17.8439C13.25 17.9644 13.152 18.0627 13.0312 18.0627H12.5938V16.0939ZM19.8464 10.1936C20.3388 10.8343 20.4569 11.613 20.4694 12.1536C20.4788 12.5683 20.4504 12.9807 20.4178 13.4015C20.3793 13.8992 20.3349 14.3148 20.2798 14.6944C20.231 14.6079 20.1813 14.518 20.147 14.4515C20.0229 14.2105 19.9236 14.0269 19.825 13.8561C19.4774 13.255 19.1328 12.8199 18.74 12.4869C18.1305 11.9709 17.3643 11.6662 16.6538 11.4641C16.8137 11.4065 16.9725 11.3473 17.1287 11.2856C17.9026 10.9789 18.9799 10.5173 19.7766 10.1067C19.8003 10.1347 19.8237 10.1638 19.8464 10.1936ZM12.0044 12.1588C12.0373 11.6244 12.1827 10.8535 12.6898 10.2154C13.0722 9.73398 13.6378 9.36276 14.3254 9.14138C14.8843 8.96157 15.5119 8.87735 16.297 8.87735H16.3444C17.1258 8.88063 17.7433 8.96573 18.2872 9.14532C18.6258 9.25688 19.0635 9.45135 19.452 9.78101C18.6778 10.1706 17.6596 10.6046 16.9679 10.8787C16.5501 11.0443 16.1064 11.1928 15.6772 11.3363C14.995 11.5645 14.2895 11.8005 13.6405 12.119C12.9759 12.4452 12.3862 13.1996 12.0674 14.0213C12.0066 13.3199 11.9788 12.5709 12.0044 12.1588ZM10.4062 16.0939H12.1562V18.0756C11.1734 18.1849 10.4062 19.0199 10.4062 20.0314V21.1252H9.96875V19.0258C9.96875 18.6249 9.78916 18.2512 9.47613 18.001L8.88003 17.5241C8.93253 16.727 9.59622 16.0939 10.4062 16.0939ZM8.875 18.0804L9.20291 18.3427C9.41159 18.5096 9.53125 18.7587 9.53125 19.0258V21.1252H8.875V18.0804Z" fill="white"/>
<path d="M10.9531 17.9531C11.2548 17.9531 11.5 17.7077 11.5 17.4062V17.0781C11.5 16.7767 11.2548 16.5312 10.9531 16.5312C10.6515 16.5312 10.4062 16.7767 10.4062 17.0781V17.4062C10.4062 17.7077 10.6515 17.9531 10.9531 17.9531ZM10.8438 17.0781C10.8438 17.0177 10.893 16.9688 10.9531 16.9688C11.0133 16.9688 11.0625 17.0177 11.0625 17.0781V17.4062C11.0625 17.4666 11.0133 17.5156 10.9531 17.5156C10.893 17.5156 10.8438 17.4666 10.8438 17.4062V17.0781Z" fill="white"/>
<path d="M18.1163 17.6184C18.1515 17.6096 18.8815 17.4143 19.5266 16.2858L19.6012 16.5844L20.0253 16.4783L19.8066 15.6033C19.7906 15.5389 19.7462 15.4854 19.6858 15.4576C19.6255 15.4298 19.5559 15.4309 19.4966 15.4606L18.6216 15.8981L18.8174 16.2895L19.0972 16.1497C18.5665 17.0284 18.0146 17.1929 18.0078 17.1947L18.0634 17.4062L18.1163 17.6184Z" fill="white"/>
<path d="M19.6476 18.4933C19.6828 18.4846 20.4128 18.2892 21.0578 17.1607L21.1324 17.4593L21.5566 17.3532L21.3378 16.4782C21.3219 16.4139 21.2775 16.3603 21.2171 16.3325C21.1567 16.3047 21.0872 16.306 21.0279 16.3356L20.1529 16.7731L20.3487 17.1644L20.6284 17.0246C20.0978 17.9033 19.5458 18.0678 19.5391 18.0696L19.5946 18.2811L19.6476 18.4933Z" fill="white"/>
</g>
<defs>
<filter id="filter0_b_1_992" x="-4" y="-4" width="38" height="38" filterUnits="userSpaceOnUse" color-interpolation-filters="sRGB">
<feFlood flood-opacity="0" result="BackgroundImageFix"/>
<feGaussianBlur in="BackgroundImageFix" stdDeviation="2"/>
<feComposite in2="SourceAlpha" operator="in" result="effect1_backgroundBlur_1_992"/>
<feBlend mode="normal" in="SourceGraphic" in2="effect1_backgroundBlur_1_992" result="shape"/>
</filter>
<clipPath id="clip0_1_992">
<rect width="14" height="14" fill="white" transform="translate(8 8)"/>
</clipPath>
</defs>
</svg>
