<svg width="30" height="30" viewBox="0 0 30 30" fill="none" xmlns="http://www.w3.org/2000/svg">
<g filter="url(#filter0_b_1_979)">
<circle cx="15" cy="15" r="15" fill="white" fill-opacity="0.1"/>
<circle cx="15" cy="15" r="14.5" stroke="white" stroke-opacity="0.2"/>
</g>
<g clip-path="url(#clip0_1_979)">
<path d="M18.2077 21.9998C16.117 21.9998 14.416 20.2988 14.416 18.2082C14.416 16.1175 16.117 14.4165 18.2077 14.4165C20.2983 14.4165 21.9993 16.1175 21.9993 18.2082C21.9993 20.2988 20.2983 21.9998 18.2077 21.9998ZM18.2077 14.9998C16.4384 14.9998 14.9993 16.4395 14.9993 18.2082C14.9993 19.9768 16.4384 21.4165 18.2077 21.4165C19.9769 21.4165 21.416 19.9768 21.416 18.2082C21.416 16.4395 19.9769 14.9998 18.2077 14.9998Z" fill="white"/>
<path d="M17.6245 19.6668C17.5475 19.6668 17.4728 19.6359 17.418 19.5816L16.2513 18.415C16.1376 18.3012 16.1376 18.1163 16.2513 18.0025C16.3651 17.8888 16.55 17.8888 16.6637 18.0025L17.6099 18.9487L19.4462 16.8499C19.5524 16.728 19.7367 16.7163 19.8581 16.8225C19.9794 16.9286 19.9917 17.1124 19.8855 17.2337L17.8438 19.567C17.7907 19.6277 17.7143 19.6639 17.6338 19.6668C17.6309 19.6668 17.6274 19.6668 17.6245 19.6668Z" fill="white"/>
<path d="M13.5417 20.25H9.45833C8.6545 20.25 8 19.5961 8 18.7917V11.2083C8 10.4039 8.6545 9.75 9.45833 9.75H10.625C10.786 9.75 10.9167 9.88067 10.9167 10.0417C10.9167 10.2027 10.786 10.3333 10.625 10.3333H9.45833C8.97592 10.3333 8.58333 10.7259 8.58333 11.2083V18.7917C8.58333 19.2741 8.97592 19.6667 9.45833 19.6667H13.5417C13.7027 19.6667 13.8333 19.7973 13.8333 19.9583C13.8333 20.1193 13.7027 20.25 13.5417 20.25Z" fill="white"/>
<path d="M17.625 13.25C17.464 13.25 17.3333 13.1193 17.3333 12.9583V11.2083C17.3333 10.7259 16.9408 10.3333 16.4583 10.3333H15.2917C15.1307 10.3333 15 10.2027 15 10.0417C15 9.88067 15.1307 9.75 15.2917 9.75H16.4583C17.2622 9.75 17.9167 10.4039 17.9167 11.2083V12.9583C17.9167 13.1193 17.786 13.25 17.625 13.25Z" fill="white"/>
<path d="M14.709 11.5H11.209C10.7266 11.5 10.334 11.1074 10.334 10.625V9.45833C10.334 9.29733 10.4647 9.16667 10.6257 9.16667H11.5298C11.6657 8.50167 12.2543 8 12.959 8C13.6637 8 14.2522 8.50167 14.3882 9.16667H15.2923C15.4533 9.16667 15.584 9.29733 15.584 9.45833V10.625C15.584 11.1074 15.1914 11.5 14.709 11.5ZM10.9173 9.75V10.625C10.9173 10.7854 11.048 10.9167 11.209 10.9167H14.709C14.87 10.9167 15.0007 10.7854 15.0007 10.625V9.75H14.1257C13.9647 9.75 13.834 9.61933 13.834 9.45833C13.834 8.97592 13.4414 8.58333 12.959 8.58333C12.4766 8.58333 12.084 8.97592 12.084 9.45833C12.084 9.61933 11.9533 9.75 11.7923 9.75H10.9173Z" fill="white"/>
<path d="M15.875 13.2498H10.0417C9.88067 13.2498 9.75 13.1192 9.75 12.9582C9.75 12.7972 9.88067 12.6665 10.0417 12.6665H15.875C16.036 12.6665 16.1667 12.7972 16.1667 12.9582C16.1667 13.1192 16.036 13.2498 15.875 13.2498Z" fill="white"/>
<path d="M14.125 14.9998H10.0417C9.88067 14.9998 9.75 14.8692 9.75 14.7082C9.75 14.5472 9.88067 14.4165 10.0417 14.4165H14.125C14.286 14.4165 14.4167 14.5472 14.4167 14.7082C14.4167 14.8692 14.286 14.9998 14.125 14.9998Z" fill="white"/>
<path d="M12.9583 16.7498H10.0417C9.88067 16.7498 9.75 16.6192 9.75 16.4582C9.75 16.2972 9.88067 16.1665 10.0417 16.1665H12.9583C13.1193 16.1665 13.25 16.2972 13.25 16.4582C13.25 16.6192 13.1193 16.7498 12.9583 16.7498Z" fill="white"/>
</g>
<defs>
<filter id="filter0_b_1_979" x="-4" y="-4" width="38" height="38" filterUnits="userSpaceOnUse" color-interpolation-filters="sRGB">
<feFlood flood-opacity="0" result="BackgroundImageFix"/>
<feGaussianBlur in="BackgroundImageFix" stdDeviation="2"/>
<feComposite in2="SourceAlpha" operator="in" result="effect1_backgroundBlur_1_979"/>
<feBlend mode="normal" in="SourceGraphic" in2="effect1_backgroundBlur_1_979" result="shape"/>
</filter>
<clipPath id="clip0_1_979">
<rect width="14" height="14" fill="white" transform="translate(8 8)"/>
</clipPath>
</defs>
</svg>
