<svg width="30" height="30" viewBox="0 0 30 30" fill="none" xmlns="http://www.w3.org/2000/svg">
<path d="M29.0147 27.7314L21.638 20.4726C23.5697 18.3738 24.7566 15.5982 24.7566 12.5439C24.7557 6.01021 19.3741 0.714355 12.735 0.714355C6.09597 0.714355 0.714355 6.01021 0.714355 12.5439C0.714355 19.0776 6.09597 24.3735 12.735 24.3735C15.6036 24.3735 18.2345 23.3813 20.3011 21.7318L27.7064 29.0192C28.0672 29.3746 28.653 29.3746 29.0139 29.0192C29.3755 28.6638 29.3755 28.0869 29.0147 27.7314ZM12.735 22.5534C7.11766 22.5534 2.56391 18.072 2.56391 12.5439C2.56391 7.0158 7.11766 2.5344 12.735 2.5344C18.3525 2.5344 22.9062 7.0158 22.9062 12.5439C22.9062 18.072 18.3525 22.5534 12.735 22.5534Z" fill="white"/>
</svg>
