<svg width="20" height="20" viewBox="0 0 20 20" fill="none" xmlns="http://www.w3.org/2000/svg">
<g clip-path="url(#clip0_1_2783)">
<path d="M8.4375 19.375C9.5372 19.375 10.4476 18.5583 10.6001 17.5H13.9331L13.5291 17.9041L13.9709 18.3459L14.9084 17.4084C14.9695 17.3474 15 17.2675 15 17.1875C15 17.1075 14.9695 17.0276 14.9084 16.9666L13.9709 16.0291L13.5291 16.4709L13.9331 16.875H10.6001C10.4476 15.8167 9.5372 15 8.4375 15C7.23144 15 6.25 15.9813 6.25 17.1875C6.25 18.3937 7.23144 19.375 8.4375 19.375ZM8.4375 15.625C9.29901 15.625 10 16.326 10 17.1875C10 18.049 9.29901 18.75 8.4375 18.75C7.57599 18.75 6.875 18.049 6.875 17.1875C6.875 16.326 7.57599 15.625 8.4375 15.625Z" fill="white"/>
<path d="M17.1875 19.375C18.3936 19.375 19.375 18.3937 19.375 17.1875C19.375 15.9813 18.3936 15 17.1875 15C15.9814 15 15 15.9813 15 17.1875C15 18.3937 15.9814 19.375 17.1875 19.375ZM17.1875 15.625C18.049 15.625 18.75 16.326 18.75 17.1875C18.75 18.049 18.049 18.75 17.1875 18.75C16.326 18.75 15.625 18.049 15.625 17.1875C15.625 16.326 16.326 15.625 17.1875 15.625Z" fill="white"/>
<path d="M7.1875 7.8125C6.0878 7.8125 5.17742 8.62919 5.02497 9.6875H4.53125C2.37732 9.6875 0.625 11.4398 0.625 13.5938C0.625 15.7477 2.37732 17.5 4.53125 17.5H5.18311L4.77905 17.9041L5.22095 18.3459L6.15845 17.4084C6.21948 17.3474 6.25 17.2675 6.25 17.1875C6.25 17.1075 6.21948 17.0276 6.15845 16.9666L5.22095 16.0291L4.77905 16.4709L5.18311 16.875H4.53125C2.72186 16.875 1.25 15.403 1.25 13.5938C1.25 11.7845 2.72186 10.3125 4.53125 10.3125H5.02497C5.17742 11.3708 6.0878 12.1875 7.1875 12.1875C8.39356 12.1875 9.375 11.2062 9.375 10C9.375 8.79379 8.39356 7.8125 7.1875 7.8125ZM7.1875 11.5625C6.32599 11.5625 5.625 10.8615 5.625 10C5.625 9.13849 6.32599 8.4375 7.1875 8.4375C8.04901 8.4375 8.75 9.13849 8.75 10C8.75 10.8615 8.04901 11.5625 7.1875 11.5625Z" fill="white"/>
<path d="M8.34595 1.65405L7.90405 2.09595L8.30811 2.5H4.97505C4.8226 1.44169 3.9122 0.625 2.8125 0.625C1.60644 0.625 0.625 1.60629 0.625 2.8125C0.625 4.01871 1.60644 5 2.8125 5C3.9122 5 4.8226 4.18331 4.97505 3.125H8.30811L7.90405 3.52905L8.34595 3.97095L9.28345 3.03345C9.34448 2.97241 9.375 2.89246 9.375 2.8125C9.375 2.73254 9.34448 2.65259 9.28345 2.59155L8.34595 1.65405ZM2.8125 4.375C1.95099 4.375 1.25 3.67401 1.25 2.8125C1.25 1.95099 1.95099 1.25 2.8125 1.25C3.67401 1.25 4.375 1.95099 4.375 2.8125C4.375 3.67401 3.67401 4.375 2.8125 4.375Z" fill="white"/>
<path d="M19.375 6.40625C19.375 4.25232 17.6227 2.5 15.4688 2.5H13.7251C13.5726 1.44169 12.6622 0.625 11.5625 0.625C10.3564 0.625 9.375 1.60629 9.375 2.8125C9.375 4.01871 10.3564 5 11.5625 5C12.6622 5 13.5726 4.18331 13.7251 3.125H15.4688C17.2781 3.125 18.75 4.59702 18.75 6.40625C18.75 8.21548 17.2781 9.6875 15.4688 9.6875H10.4419L10.8459 9.28345L10.4041 8.84155L9.46655 9.77905C9.40552 9.84009 9.375 9.92004 9.375 10C9.375 10.08 9.40552 10.1599 9.46655 10.2209L10.4041 11.1584L10.8459 10.7166L10.4419 10.3125H15.4688C17.6227 10.3125 19.375 8.56018 19.375 6.40625ZM11.5625 4.375C10.701 4.375 10 3.67401 10 2.8125C10 1.95099 10.701 1.25 11.5625 1.25C12.424 1.25 13.125 1.95099 13.125 2.8125C13.125 3.67401 12.424 4.375 11.5625 4.375Z" fill="white"/>
</g>
<defs>
<clipPath id="clip0_1_2783">
<rect width="20" height="20" fill="white"/>
</clipPath>
</defs>
</svg>
