<svg width="20" height="20" viewBox="0 0 20 20" fill="none" xmlns="http://www.w3.org/2000/svg">
<g clip-path="url(#clip0_1_2767)">
<path d="M10 3.26078C10.2391 3.26078 10.4348 3.06513 10.4348 2.826V2.60861C10.4348 2.36948 10.2391 2.17383 10 2.17383C9.76087 2.17383 9.56522 2.36948 9.56522 2.60861V2.826C9.56522 3.06513 9.76087 3.26078 10 3.26078Z" fill="white"/>
<path d="M10 16.739C9.76087 16.739 9.56522 16.9347 9.56522 17.1738V17.3912C9.56522 17.6303 9.76087 17.826 10 17.826C10.2391 17.826 10.4348 17.6303 10.4348 17.3912V17.1738C10.4348 16.9347 10.2391 16.739 10 16.739Z" fill="white"/>
<path d="M2.82609 9.56519H2.6087C2.36957 9.56519 2.17392 9.76084 2.17392 9.99997C2.17392 10.2391 2.36957 10.4348 2.6087 10.4348H2.82609C3.06522 10.4348 3.26088 10.2391 3.26088 9.99997C3.26088 9.76084 3.06522 9.56519 2.82609 9.56519Z" fill="white"/>
<path d="M17.3913 9.56519H17.1739C16.9348 9.56519 16.7391 9.76084 16.7391 9.99997C16.7391 10.2391 16.9348 10.4348 17.1739 10.4348H17.3913C17.6304 10.4348 17.8261 10.2391 17.8261 9.99997C17.8261 9.76084 17.6304 9.56519 17.3913 9.56519Z" fill="white"/>
<path d="M5.08697 4.47834C4.91306 4.30442 4.65219 4.30442 4.47827 4.47834C4.30436 4.65225 4.30436 4.91312 4.47827 5.08703L4.63045 5.2392C4.7174 5.32616 4.8261 5.36964 4.9348 5.36964C5.04349 5.36964 5.15219 5.32616 5.23914 5.2392C5.41306 5.06529 5.41306 4.80442 5.23914 4.63051L5.08697 4.47834Z" fill="white"/>
<path d="M4.63045 14.7608L4.47827 14.913C4.30436 15.0869 4.30436 15.3478 4.47827 15.5217C4.56523 15.6086 4.67393 15.6521 4.78262 15.6521C4.89132 15.6521 5.00001 15.6086 5.08697 15.5217L5.23914 15.3695C5.41306 15.1956 5.41306 14.9347 5.23914 14.7608C5.06523 14.5869 4.80436 14.5869 4.63045 14.7608Z" fill="white"/>
<path d="M14.913 4.47834L14.7609 4.63051C14.587 4.80442 14.587 5.06529 14.7609 5.2392C14.8478 5.32616 14.9565 5.36964 15.0652 5.36964C15.1739 5.36964 15.2826 5.32616 15.3696 5.2392L15.5217 5.08703C15.6956 4.91312 15.6956 4.65225 15.5217 4.47834C15.3478 4.30442 15.087 4.30442 14.913 4.47834Z" fill="white"/>
<path d="M10.4348 9.82612V5.8696C10.4348 5.63047 10.2391 5.43481 10 5.43481C9.76087 5.43481 9.56522 5.63047 9.56522 5.8696V10C9.56522 10.1087 9.60869 10.2174 9.69565 10.3044L14.4565 15.0653C14.5435 15.1522 14.6522 15.1957 14.7609 15.1957C14.8696 15.1957 14.9783 15.1522 15.0652 15.0653C15.2391 14.8913 15.2391 14.6305 15.0652 14.4566L10.4348 9.82612Z" fill="white"/>
<path d="M10 0C4.47826 0 0 4.47826 0 10C0 15.5217 4.47826 20 10 20C15.5217 20 20 15.5217 20 10C20 4.47826 15.5217 0 10 0ZM10 19.1304C4.95652 19.1304 0.869565 15.0435 0.869565 10C0.869565 4.95652 4.95652 0.869565 10 0.869565C15.0435 0.869565 19.1304 4.95652 19.1304 10C19.1304 15.0435 15.0435 19.1304 10 19.1304Z" fill="white"/>
</g>
<defs>
<clipPath id="clip0_1_2767">
<rect width="20" height="20" fill="white"/>
</clipPath>
</defs>
</svg>
